<svg id="Layer_1" data-name="Layer 1" xmlns="http://www.w3.org/2000/svg" viewBox="0 0 103.69 96.18"><defs><style>.cls-1,.cls-2{fill:none;stroke-miterlimit:10;}.cls-1{stroke:#231f20;stroke-width:2px;}.cls-2{stroke:#fff;stroke-width:3px;}</style></defs><line class="cls-1" x1="4.77" y1="38.65" x2="4.57" y2="38.43"/><path class="cls-2" d="M269.17,252.66a22.44,22.44,0,0,1-3.92,12.58l-.23.3-2.86,3.5-40.28,49.17a4.71,4.71,0,0,1-7,0L176.49,270h0l-5-6.3v0a22.15,22.15,0,0,1-3-11c0-14.42,14.21-26.12,31.75-26.12,5.9,0,11.44,3,16.18,5.75a4.89,4.89,0,0,0,4.83,0c4.74-2.8,10.28-5.75,16.18-5.75C255,226.54,269.17,238.24,269.17,252.66Z" transform="translate(-166.98 -225.04)"/></svg>