<svg id="Layer_1" data-name="Layer 1" xmlns="http://www.w3.org/2000/svg" viewBox="0 0 184.38 198.87"><defs><style>.cls-1{fill:#f4deb3;}.cls-2{fill:#764d2a;}</style></defs><path class="cls-1" d="M349.81,239.48l-68,115.86c-119.9-74.14-115.3-180.6-116.37-198.86l136.26.11A103,103,0,0,0,349.81,239.48Z" transform="translate(-165.42 -156.48)"/><path class="cls-2" d="M271.14,283.59c-4.11,1.35-57.46-.1-61.14.16-4.94.36,3.33-13.17,7.16-13.19,16.34-.09,37.56-.09,47.48.16C267.85,270.8,274.75,282.4,271.14,283.59Z" transform="translate(-165.42 -156.48)"/><polygon class="cls-2" points="64.54 109.65 56.17 109.7 45.11 89.03 51.7 85.89 64.54 109.65"/><path class="cls-2" d="M216.92,233.66a8.6,8.6,0,1,1-8.6-8.83A8.72,8.72,0,0,1,216.92,233.66Z" transform="translate(-165.42 -156.48)"/><polygon class="cls-2" points="72.83 41.55 72.71 52.62 53.93 71.03 48.44 65.52 72.83 41.55"/><path class="cls-2" d="M288.3,191.32l-39.46,38.27c-7.1-8-10.65-17.86-6.46-31.94l-3.88-4.23a11.33,11.33,0,0,1,.41-15.68,10.47,10.47,0,0,1,14.74,0l4.65,4.55C272,179.56,280.67,184.69,288.3,191.32Z" transform="translate(-165.42 -156.48)"/><path class="cls-2" d="M262,220.51l17-16.41C284.46,216.88,275.62,226.27,262,220.51Z" transform="translate(-165.42 -156.48)"/><path class="cls-2" d="M259.52,266.09l-14.48,0C248.74,258.82,258.13,260.12,259.52,266.09Z" transform="translate(-165.42 -156.48)"/><path class="cls-2" d="M311.94,207.17h-10C301.39,198,311.94,196.58,311.94,207.17Z" transform="translate(-165.42 -156.48)"/><path class="cls-2" d="M318.77,215l-.12,25.05-2.26-.06-.06-22.8c-.4-2.54-3.84-2.29-4.33,0l.12,54.68H301.94V210.39l12.19,0C317,210.55,318.35,212.3,318.77,215Z" transform="translate(-165.42 -156.48)"/><path class="cls-2" d="M311,275.28s-3.93,9.37-3.93,9.46-4-9.48-4-9.48Z" transform="translate(-165.42 -156.48)"/></svg>