<svg id="Layer_1" data-name="Layer 1" xmlns="http://www.w3.org/2000/svg" viewBox="0 0 183.31 200.13"><defs><style>.cls-1{fill:#f4deb3;}.cls-2{fill:#764d2a;}</style></defs><path class="cls-1" d="M347.51,156.43C342.82,296.65,247.72,345.93,232.32,356L164.19,238.52a103,103,0,0,0,47.38-82.68Z" transform="translate(-164.19 -155.84)"/><path class="cls-2" d="M223.91,292.36l49.45-.06.06-5.53c-.38-3.62-2.06-6-5.13-7l-40.35.06c-2.16.95-3.55,3.15-4,6.83Z" transform="translate(-164.19 -155.84)"/><path class="cls-2" d="M236,275.46h24.3C269.51,246.82,229.59,239.31,236,275.46Zm12.21-3.93c-3.11,0-5.62-2.82-5.62-6.33s2.51-6.33,5.62-6.33,5.62,2.85,5.62,6.33S251.3,271.53,248.2,271.53Z" transform="translate(-164.19 -155.84)"/><path class="cls-2" d="M216.79,244.89,232,261.23c.78-5.6,3.53-9.91,8.61-12.24l-14.79-15.41C226.23,238.62,221.81,243.53,216.79,244.89Z" transform="translate(-164.19 -155.84)"/><path class="cls-2" d="M211.57,218.05c-5.72,0-10.37,5.24-10.37,11.68s4.65,11.68,10.37,11.68S222,236.18,222,229.73,217.3,218.05,211.57,218.05Zm.19,17c-2.57,0-4.67-2.36-4.67-5.26s2.1-5.26,4.67-5.26,4.67,2.36,4.67,5.26S214.34,235.05,211.76,235.05Z" transform="translate(-164.19 -155.84)"/><path class="cls-2" d="M215.8,214.63c4.29.69,7.3,3.65,8.94,9L237,207.92c-3.79-1.5-6.6-4.42-8.17-9.13Z" transform="translate(-164.19 -155.84)"/><ellipse class="cls-2" cx="76.03" cy="39.07" rx="7.48" ry="8.42"/><path class="cls-2" d="M250.84,189.91a13,13,0,0,1,.12,12.3l8.16-.06c5.14-4.17,5.45-8.23.06-12.18Z" transform="translate(-164.19 -155.84)"/><polygon class="cls-2" points="98.91 31.89 102 35.18 105.09 30.9 114.03 30.83 114.03 25.3 104.92 25.12 98.91 31.89"/><polygon class="cls-2" points="98.08 48.98 102.05 54.2 112.04 54.32 112.04 49.91 103.87 49.78 101 46.37 98.08 48.98"/><path class="cls-2" d="M321.67,193.33l-4.05-6.84,2-6.71-8.22-5.73-3.8,4.62h-9.06l-3.7-5-7.34,5.16,1,5.53L284.4,192l-6.23,2.42.11,10.06,5.46,1.81,4.58,8.33-.93,6.9,8,4.47,4-4.47,8.18-.06,4,5.53,8.06-5.47-1-6.72,3.05-6.83,6.07-2.24V194.5ZM303.34,211.9c-5.62,0-10.17-5.18-10.17-11.56s4.55-11.55,10.17-11.55,10.18,5.18,10.18,11.55S309,211.9,303.34,211.9Z" transform="translate(-164.19 -155.84)"/></svg>