<svg id="Layer_1" data-name="Layer 1" xmlns="http://www.w3.org/2000/svg" viewBox="0 0 184.3 198.88"><defs><style>.cls-1{fill:#f4deb3;}.cls-2{fill:#764d2a;}</style></defs><path class="cls-1" d="M346.22,355.35l-136.69-.14a103,103,0,0,0-47.61-83l68-115.71C349.78,230.62,345.16,337.09,346.22,355.35Z" transform="translate(-161.92 -156.47)"/><path class="cls-2" d="M240.53,253.72c-59.53,1.48-22.95-55.82,7.28-8.83l-3,1.32c-21.27-25.48-42.92,1.18-4.29,6Z" transform="translate(-161.92 -156.47)"/><path class="cls-2" d="M259.62,243.66c26.25-45.17,68.61,10.21,6.56,9.18l-.09-1.77c38.46-3.11,19.4-30.09-3.92-5.3Z" transform="translate(-161.92 -156.47)"/><path class="cls-2" d="M245.22,254.42c.7-9.83,14.2-10.71,15.39.11Z" transform="translate(-161.92 -156.47)"/><polygon class="cls-2" points="39.91 100.88 83.3 101.05 83.44 117.89 39.84 117.89 39.91 100.88"/><polygon class="cls-2" points="47.61 121.93 47.75 136.06 83.3 135.96 83.3 121.93 47.61 121.93"/><polygon class="cls-2" points="47.47 146.89 83.37 147 83.37 167.94 47.61 167.99 47.47 146.89"/><polygon class="cls-2" points="98.69 146.95 135.64 147 135.78 167.88 98.76 167.88 98.69 146.95"/><polygon class="cls-2" points="98.62 121.93 98.83 135.79 135.85 135.84 135.64 121.93 98.62 121.93"/><polygon class="cls-2" points="98.62 100.99 98.9 118 143.41 117.89 143.48 100.99 98.62 100.99"/></svg>