<svg id="Layer_1" data-name="Layer 1" xmlns="http://www.w3.org/2000/svg" viewBox="0 0 183.04 200.13"><defs><style>.cls-1{fill:#f4deb3;}.cls-2{fill:#764d2a;}</style></defs><path class="cls-1" d="M347.37,272.82A103,103,0,0,0,299.69,356l-135.36-.6C169,215.17,264.11,165.89,279.52,155.84Z" transform="translate(-164.33 -155.84)"/><path class="cls-2" d="M222,335.1c2.15,7.4,16.1,8.56,17.76.07l-3.73-63,11.33-11.58V223.24c-.2-5.21-5.8-4.76-6.49,0l.14,27c-.62,2.76-6.08,3-7.6-.07l-.14-26.82c-.35-4.76-5.74-4.05-6.29.06l.14,26.83c-1,3.28-5.05,3.15-6.36,0l.07-26.83c-1.38-4.11-6.64-4.18-7.81,0l.34,37.25,12.44,11.51Z" transform="translate(-164.33 -155.84)"/><path class="cls-2" d="M279.83,273.61,276.17,335c1.86,7.91,16.79,8.11,17.76.26l-3.87-61.82c23.56-12.35,22.61-33.8-.07-52.74-3.32-2.28-6.71-2.55-10.09.06C262.76,231.73,252.74,261.32,279.83,273.61Z" transform="translate(-164.33 -155.84)"/></svg>