<svg id="Layer_1" data-name="Layer 1" xmlns="http://www.w3.org/2000/svg" viewBox="0 0 231.55 148.18"><defs><style>.cls-1{fill:#f4deb3;}.cls-2{fill:#764d2a;}.cls-3{fill:none;stroke:#f4deb3;stroke-miterlimit:10;stroke-width:9px;}</style></defs><path class="cls-1" d="M371.62,281.22c-124.57,66.08-215.08,8.89-231.55.67l68-116.7a104.66,104.66,0,0,0,96.45-.67Z" transform="translate(-140.07 -164.52)"/><polygon class="cls-2" points="86.15 114.78 154.43 114.7 154.43 126.35 86.15 126.39 86.15 114.78"/><path class="cls-2" d="M226.24,274.05l68.23-1.16V257c32.36-2.67,32.24-41.35-.18-47.21h-10.5c-4.4-19.57-34.69-31.66-48.08.23l-9.49.06c-28,3.14-36.53,41.34,0,46.92Z" transform="translate(-140.07 -164.52)"/><path class="cls-3" d="M230.78,217.51c4.7-44.82,58.64-37.16,58.29,0" transform="translate(-140.07 -164.52)"/></svg>