<svg id="Layer_1" data-name="Layer 1" xmlns="http://www.w3.org/2000/svg" viewBox="0 0 231.55 148.14"><defs><style>.cls-1{fill:#f4deb3;}.cls-2{fill:#764d2a;}</style></defs><path class="cls-1" d="M371.62,229.94,303.29,347.29a104.66,104.66,0,0,0-96.11,0L140.07,230.63C264.65,164.53,355.17,221.73,371.62,229.94Z" transform="translate(-140.07 -199.14)"/><ellipse class="cls-2" cx="147.46" cy="107.15" rx="6.57" ry="6.53"/><ellipse class="cls-2" cx="103.22" cy="106.33" rx="6.57" ry="6.53"/><path class="cls-2" d="M227,293.68c.41,1.78,4.09,1.59,5.77,1.6l66.57-.53a2.1,2.1,0,0,1,.43.05,1.45,1.45,0,0,1,1,.73,1.61,1.61,0,0,1,.14,1.18l0,.09c-.5.8-.4.85-1.46.83L234.11,297c-9,.53-11.7-1.68-12.25-3.9a3.92,3.92,0,0,1,2.78-4.62l.83-.35a1.13,1.13,0,0,0-.19-.52l-25.56-59.27a1.6,1.6,0,0,0-1.51-1l-16.94.27a1.61,1.61,0,1,1-.07-3.22l19.54-.56a1.6,1.6,0,0,1,1.56,1L206,234a1.62,1.62,0,0,0,1.51,1h26.27c-.07.77-.11,1.55-.11,2.33a24.76,24.76,0,0,0,11.95,21.18v4.6l1.94.67.33-4a25,25,0,0,0,35.71-22.41c0-.78,0-1.56-.11-2.33h21.36a1.61,1.61,0,0,1,1.49,2.26l-18.95,42.75a1.64,1.64,0,0,1-1.26.94l-55.72,8.91c-.21,0-.48.08-.79.15A3.41,3.41,0,0,0,227,293.68Z" transform="translate(-140.07 -199.14)"/><path class="cls-2" d="M283.09,214.1c-1.36,1.43-2.88,6.73-2.81,11,0,.56.05,1.11.11,1.62a28.61,28.61,0,0,1,.33,7.56c0,.26,0,.53,0,.81,0,.61,0,1.28-.1,2a22.28,22.28,0,0,1-1.77,7.15c-2.46,5.85-7,8.39-8.5,9.49a17,17,0,0,1-5.11,2.57c-4,1.38-7.76,1.76-9.6,1.46-1.45-.23-2.83-.42-3.95-.57h0c-1.14-.15-2-.26-2.46-.34-1-.18-.27-3.66-.2-4.7.35-5.24,4.48-11.56,8.93-17.07,5.62-7,11.74-12.61,11.31-13.07s-6.28,3.6-13,10.55c-.67.7-1.45,1.55-2.28,2.52-3.92,4.61-8.83,12-7.59,18.47.32,1.68-3.56-2.48-4.5-4-2.78-4.41-3.08-9.65-2-14.51a27.82,27.82,0,0,1,3.35-8.25c4.84-7.92,12.75-11.38,16.28-12.87,1-.42,1.93-.77,2.86-1.08a56,56,0,0,1,11-2.21c5.29-.69,11.08-.92,12.12,0C285.61,210.81,285.08,212,283.09,214.1Z" transform="translate(-140.07 -199.14)"/></svg>